<svg width="88" height="23" viewBox="0 0 88 23" fill="none" xmlns="http://www.w3.org/2000/svg">
<path d="M14.1172 12.3164C13.9844 14.1523 13.3047 15.5977 12.0781 16.6523C10.8594 17.707 9.25 18.2344 7.25 18.2344C5.0625 18.2344 3.33984 17.5 2.08203 16.0312C0.832031 14.5547 0.207031 12.5312 0.207031 9.96094V8.91797C0.207031 7.27734 0.496094 5.83203 1.07422 4.58203C1.65234 3.33203 2.47656 2.375 3.54688 1.71094C4.625 1.03906 5.875 0.703125 7.29688 0.703125C9.26562 0.703125 10.8516 1.23047 12.0547 2.28516C13.2578 3.33984 13.9531 4.82031 14.1406 6.72656H10.625C10.5391 5.625 10.2305 4.82812 9.69922 4.33594C9.17578 3.83594 8.375 3.58594 7.29688 3.58594C6.125 3.58594 5.24609 4.00781 4.66016 4.85156C4.08203 5.6875 3.78516 6.98828 3.76953 8.75391V10.043C3.76953 11.8867 4.04688 13.2344 4.60156 14.0859C5.16406 14.9375 6.04688 15.3633 7.25 15.3633C8.33594 15.3633 9.14453 15.1172 9.67578 14.625C10.2148 14.125 10.5234 13.3555 10.6016 12.3164H14.1172ZM19.5078 6.70312C20.4062 5.625 21.5352 5.08594 22.8945 5.08594C25.6445 5.08594 27.0391 6.68359 27.0781 9.87891V18H23.6914V9.97266C23.6914 9.24609 23.5352 8.71094 23.2227 8.36719C22.9102 8.01562 22.3906 7.83984 21.6641 7.83984C20.6719 7.83984 19.9531 8.22266 19.5078 8.98828V18H16.1211V0H19.5078V6.70312ZM36.9805 18C36.8242 17.6953 36.7109 17.3164 36.6406 16.8633C35.8203 17.7773 34.7539 18.2344 33.4414 18.2344C32.1992 18.2344 31.168 17.875 30.3477 17.1562C29.5352 16.4375 29.1289 15.5312 29.1289 14.4375C29.1289 13.0938 29.625 12.0625 30.6172 11.3438C31.6172 10.625 33.0586 10.2617 34.9414 10.2539H36.5V9.52734C36.5 8.94141 36.3477 8.47266 36.043 8.12109C35.7461 7.76953 35.2734 7.59375 34.625 7.59375C34.0547 7.59375 33.6055 7.73047 33.2773 8.00391C32.957 8.27734 32.7969 8.65234 32.7969 9.12891H29.4102C29.4102 8.39453 29.6367 7.71484 30.0898 7.08984C30.543 6.46484 31.1836 5.97656 32.0117 5.625C32.8398 5.26562 33.7695 5.08594 34.8008 5.08594C36.3633 5.08594 37.6016 5.48047 38.5156 6.26953C39.4375 7.05078 39.8984 8.15234 39.8984 9.57422V15.0703C39.9062 16.2734 40.0742 17.1836 40.4023 17.8008V18H36.9805ZM34.1797 15.6445C34.6797 15.6445 35.1406 15.5352 35.5625 15.3164C35.9844 15.0898 36.2969 14.7891 36.5 14.4141V12.2344H35.2344C33.5391 12.2344 32.6367 12.8203 32.5273 13.9922L32.5156 14.1914C32.5156 14.6133 32.6641 14.9609 32.9609 15.2344C33.2578 15.5078 33.6641 15.6445 34.1797 15.6445ZM46.5547 2.20312V5.32031H48.7227V7.80469H46.5547V14.1328C46.5547 14.6016 46.6445 14.9375 46.8242 15.1406C47.0039 15.3438 47.3477 15.4453 47.8555 15.4453C48.2305 15.4453 48.5625 15.418 48.8516 15.3633V17.9297C48.1875 18.1328 47.5039 18.2344 46.8008 18.2344C44.4258 18.2344 43.2148 17.0352 43.168 14.6367V7.80469H41.3164V5.32031H43.168V2.20312H46.5547Z" fill="white"/>
<path d="M59.1406 18C59 17.6016 58.9102 17.0117 58.8711 16.2305C58.3789 16.8711 57.75 17.3672 56.9844 17.7188C56.2266 18.0625 55.4219 18.2344 54.5703 18.2344C53.3516 18.2344 52.3633 17.8945 51.6055 17.2148C50.8555 16.5352 50.4805 15.6758 50.4805 14.6367C50.4805 13.4023 50.9922 12.4258 52.0156 11.707C53.0469 10.9883 54.4805 10.6289 56.3164 10.6289H58.8594V9.1875C58.8594 8.28125 58.5781 7.57031 58.0156 7.05469C57.4609 6.53125 56.6484 6.26953 55.5781 6.26953C54.6016 6.26953 53.793 6.51953 53.1523 7.01953C52.5117 7.51953 52.1914 8.12109 52.1914 8.82422L50.7852 8.8125C50.7852 7.80469 51.2539 6.93359 52.1914 6.19922C53.1289 5.45703 54.2812 5.08594 55.6484 5.08594C57.0625 5.08594 58.1758 5.44141 58.9883 6.15234C59.8086 6.85547 60.2305 7.83984 60.2539 9.10547V15.1055C60.2539 16.332 60.3828 17.25 60.6406 17.8594V18H59.1406ZM54.7344 16.9922C55.6719 16.9922 56.5078 16.7656 57.2422 16.3125C57.9844 15.8594 58.5234 15.2539 58.8594 14.4961V11.707H56.3516C54.9531 11.7227 53.8594 11.9805 53.0703 12.4805C52.2812 12.9727 51.8867 13.6523 51.8867 14.5195C51.8867 15.2305 52.1484 15.8203 52.6719 16.2891C53.2031 16.7578 53.8906 16.9922 54.7344 16.9922ZM74.1992 11.7891C74.1992 13.7656 73.7617 15.3359 72.8867 16.5C72.0117 17.6562 70.8398 18.2344 69.3711 18.2344C67.6367 18.2344 66.3086 17.625 65.3867 16.4062V22.875H63.9922V5.32031H65.293L65.3633 7.11328C66.2773 5.76172 67.6016 5.08594 69.3359 5.08594C70.8516 5.08594 72.0391 5.66016 72.8984 6.80859C73.7656 7.95703 74.1992 9.55078 74.1992 11.5898V11.7891ZM72.793 11.543C72.793 9.92578 72.4609 8.64844 71.7969 7.71094C71.1328 6.77344 70.207 6.30469 69.0195 6.30469C68.1602 6.30469 67.4219 6.51172 66.8047 6.92578C66.1875 7.33984 65.7148 7.94141 65.3867 8.73047V14.8125C65.7227 15.5391 66.2031 16.0938 66.8281 16.4766C67.4531 16.8594 68.1914 17.0508 69.043 17.0508C70.2227 17.0508 71.1406 16.582 71.7969 15.6445C72.4609 14.6992 72.793 13.332 72.793 11.543ZM87.5117 11.7891C87.5117 13.7656 87.0742 15.3359 86.1992 16.5C85.3242 17.6562 84.1523 18.2344 82.6836 18.2344C80.9492 18.2344 79.6211 17.625 78.6992 16.4062V22.875H77.3047V5.32031H78.6055L78.6758 7.11328C79.5898 5.76172 80.9141 5.08594 82.6484 5.08594C84.1641 5.08594 85.3516 5.66016 86.2109 6.80859C87.0781 7.95703 87.5117 9.55078 87.5117 11.5898V11.7891ZM86.1055 11.543C86.1055 9.92578 85.7734 8.64844 85.1094 7.71094C84.4453 6.77344 83.5195 6.30469 82.332 6.30469C81.4727 6.30469 80.7344 6.51172 80.1172 6.92578C79.5 7.33984 79.0273 7.94141 78.6992 8.73047V14.8125C79.0352 15.5391 79.5156 16.0938 80.1406 16.4766C80.7656 16.8594 81.5039 17.0508 82.3555 17.0508C83.5352 17.0508 84.4531 16.582 85.1094 15.6445C85.7734 14.6992 86.1055 13.332 86.1055 11.543Z" fill="#D5D1D1"/>
</svg>
