<svg width="152" height="21" viewBox="0 0 152 21" fill="none" xmlns="http://www.w3.org/2000/svg">
<path d="M23.9374 8.05559C23.7803 7.63037 23.3493 7.32835 22.8393 7.28813L15.9123 6.73777L13.1731 1.12794C12.9712 0.716811 12.5112 0.450684 12.0001 0.450684C11.4891 0.450684 11.0291 0.716811 10.8271 1.1289L8.08797 6.73777L1.15982 7.28813C0.65077 7.32931 0.220828 7.63037 0.0628038 8.05559C-0.0952203 8.48082 0.0507185 8.94723 0.435799 9.24123L5.67183 13.2593L4.12785 19.2104C4.01487 19.6479 4.20897 20.1002 4.62389 20.3627C4.84692 20.5037 5.10785 20.5755 5.37098 20.5755C5.59786 20.5755 5.8229 20.5219 6.02487 20.4162L12.0001 17.2914L17.9732 20.4162C18.4103 20.6463 18.9612 20.6253 19.3753 20.3627C19.7904 20.0994 19.9843 19.647 19.8713 19.2104L18.3273 13.2593L23.5633 9.24203C23.9484 8.94723 24.0955 8.48162 23.9374 8.05559V8.05559Z" fill="#F5C125"/>
<g clip-path="url(#clip0)">
<path d="M55.9374 8.05559C55.7803 7.63037 55.3493 7.32835 54.8393 7.28813L47.9123 6.73777L45.1731 1.12794C44.9712 0.716811 44.5112 0.450684 44.0001 0.450684C43.4891 0.450684 43.0291 0.716811 42.8271 1.1289L40.088 6.73777L33.1598 7.28813C32.6508 7.32931 32.2208 7.63037 32.0628 8.05559C31.9048 8.48082 32.0507 8.94723 32.4358 9.24123L37.6718 13.2593L36.1278 19.2104C36.0149 19.6479 36.209 20.1002 36.6239 20.3627C36.8469 20.5037 37.1079 20.5755 37.371 20.5755C37.5979 20.5755 37.8229 20.5219 38.0249 20.4162L44.0001 17.2914L49.9732 20.4162C50.4103 20.6463 50.9612 20.6253 51.3752 20.3627C51.7904 20.0994 51.9843 19.647 51.8713 19.2104L50.3273 13.2593L55.5633 9.24203C55.9484 8.94723 56.0955 8.48162 55.9374 8.05559Z" fill="#F5C125"/>
</g>
<g clip-path="url(#clip1)">
<path d="M119.937 8.05559C119.78 7.63037 119.349 7.32835 118.839 7.28813L111.912 6.73777L109.173 1.12794C108.971 0.716811 108.511 0.450684 108 0.450684C107.489 0.450684 107.029 0.716811 106.827 1.1289L104.088 6.73777L97.1598 7.28813C96.6508 7.32931 96.2208 7.63037 96.0628 8.05559C95.9048 8.48082 96.0507 8.94723 96.4358 9.24123L101.672 13.2593L100.128 19.2104C100.015 19.6479 100.209 20.1002 100.624 20.3627C100.847 20.5037 101.108 20.5755 101.371 20.5755C101.598 20.5755 101.823 20.5219 102.025 20.4162L108 17.2914L113.973 20.4162C114.41 20.6463 114.961 20.6253 115.375 20.3627C115.79 20.0994 115.984 19.647 115.871 19.2104L114.327 13.2593L119.563 9.24203C119.948 8.94723 120.095 8.48162 119.937 8.05559Z" fill="#F5C125"/>
</g>
<g clip-path="url(#clip2)">
<path d="M87.9374 8.05559C87.7803 7.63037 87.3493 7.32835 86.8393 7.28813L79.9123 6.73777L77.1731 1.12794C76.9712 0.716811 76.5112 0.450684 76.0001 0.450684C75.4891 0.450684 75.0291 0.716811 74.8271 1.1289L72.088 6.73777L65.1598 7.28813C64.6508 7.32931 64.2208 7.63037 64.0628 8.05559C63.9048 8.48082 64.0507 8.94723 64.4358 9.24123L69.6718 13.2593L68.1278 19.2104C68.0149 19.6479 68.209 20.1002 68.6239 20.3627C68.8469 20.5037 69.1079 20.5755 69.371 20.5755C69.5979 20.5755 69.8229 20.5219 70.0249 20.4162L76.0001 17.2914L81.9732 20.4162C82.4103 20.6463 82.9612 20.6253 83.3752 20.3627C83.7904 20.0994 83.9843 19.647 83.8713 19.2104L82.3273 13.2593L87.5633 9.24203C87.9484 8.94723 88.0955 8.48162 87.9374 8.05559Z" fill="#F5C125"/>
</g>
<g clip-path="url(#clip3)">
<path d="M151.937 8.05559C151.78 7.63037 151.349 7.32835 150.839 7.28813L143.912 6.73777L141.173 1.12794C140.971 0.716811 140.511 0.450684 140 0.450684C139.489 0.450684 139.029 0.716811 138.827 1.1289L136.088 6.73777L129.16 7.28813C128.651 7.32931 128.221 7.63037 128.063 8.05559C127.905 8.48082 128.051 8.94723 128.436 9.24123L133.672 13.2593L132.128 19.2104C132.015 19.6479 132.209 20.1002 132.624 20.3627C132.847 20.5037 133.108 20.5755 133.371 20.5755C133.598 20.5755 133.823 20.5219 134.025 20.4162L140 17.2914L145.973 20.4162C146.41 20.6463 146.961 20.6253 147.375 20.3627C147.79 20.0994 147.984 19.647 147.871 19.2104L146.327 13.2593L151.563 9.24203C151.948 8.94723 152.095 8.48162 151.937 8.05559Z" fill="#F5C125"/>
</g>
<defs>
<clipPath id="clip0">
<rect width="24" height="21" fill="white" transform="translate(32)"/>
</clipPath>
<clipPath id="clip1">
<rect width="24" height="21" fill="white" transform="translate(96)"/>
</clipPath>
<clipPath id="clip2">
<rect width="24" height="21" fill="white" transform="translate(64)"/>
</clipPath>
<clipPath id="clip3">
<rect width="24" height="21" fill="white" transform="translate(128)"/>
</clipPath>
</defs>
</svg>
